<svg xmlns="http://www.w3.org/2000/svg" width="512" height="512" viewBox="0 0 512 512">
  <defs>
    <linearGradient id="bg" x1="0" y1="0" x2="1" y2="1">
      <stop offset="0" stop-color="#FF8A5B"/>
      <stop offset="1" stop-color="#FF5E7E"/>
    </linearGradient>
  </defs>
  <rect width="512" height="512" fill="url(#bg)"/>
  <!-- livre ouvert, avec marge de sécurité (zone maskable) -->
  <g fill="none" stroke="#FFF7F0" stroke-width="18" stroke-linejoin="round" stroke-linecap="round" transform="translate(256 256) scale(0.62) translate(-256 -256)">
    <path d="M256 156c-30-26-78-34-120-30-14 1-24 13-24 27v176c0 16 14 28 30 26 38-4 84 4 114 28"/>
    <path d="M256 156c30-26 78-34 120-30 14 1 24 13 24 27v176c0 16-14 28-30 26-38-4-84 4-114 28"/>
    <path d="M256 156v227"/>
  </g>
  <circle cx="256" cy="156" r="10" fill="#FFF7F0" transform="translate(256 256) scale(0.62) translate(-256 -256)"/>
</svg>
